<?xml version="1.0" standalone="no"?>
<!DOCTYPE svg PUBLIC "-//W3C//DTD SVG 20010904//EN"
 "http://www.w3.org/TR/2001/REC-SVG-20010904/DTD/svg10.dtd">
<svg version="1.0" xmlns="http://www.w3.org/2000/svg"
 width="1479.000000pt" height="1479.000000pt" viewBox="0 0 1479.000000 1479.000000"
 preserveAspectRatio="xMidYMid meet">
<metadata>
Created by potrace 1.11, written by Peter Selinger 2001-2013
</metadata>
<g transform="translate(0.000000,1479.000000) scale(0.100000,-0.100000)"
fill="#000000" stroke="none">
<path d="M7298 12835 c-2 -2 -61 -6 -133 -9 -71 -4 -143 -8 -160 -10 -16 -3
-61 -7 -100 -10 -80 -7 -154 -15 -205 -21 -19 -3 -55 -7 -80 -10 -25 -3 -70
-10 -100 -15 -30 -5 -73 -12 -95 -15 -22 -3 -56 -8 -75 -11 -19 -3 -42 -7 -50
-9 -8 -3 -32 -7 -54 -11 -21 -3 -48 -8 -60 -10 -18 -4 -53 -11 -144 -29 -13
-2 -31 -6 -40 -9 -9 -3 -28 -7 -42 -10 -56 -9 -325 -79 -470 -122 -303 -90
-660 -221 -883 -323 -37 -17 -69 -31 -71 -31 -3 0 -55 -24 -118 -54 -128 -60
-134 -62 -203 -71 -27 -3 -63 -8 -80 -11 -16 -3 -42 -7 -57 -9 -64 -11 -95
-16 -123 -21 -16 -3 -41 -7 -55 -9 -14 -2 -50 -9 -80 -15 -30 -6 -68 -14 -85
-16 -16 -3 -57 -12 -90 -21 -33 -8 -71 -17 -85 -20 -103 -18 -465 -123 -590
-170 -8 -3 -19 -7 -25 -8 -85 -21 -533 -228 -641 -296 -178 -114 -235 -154
-334 -234 -57 -46 -195 -185 -245 -245 -160 -197 -262 -413 -314 -670 -27
-129 -30 -146 -37 -215 -3 -33 -9 -82 -13 -110 -13 -91 -4 -467 14 -595 8 -57
15 -108 21 -150 3 -25 7 -47 9 -48 2 -2 -8 -34 -22 -70 -79 -207 -162 -486
-178 -599 -3 -18 -9 -53 -15 -78 -6 -25 -13 -62 -15 -83 -3 -20 -8 -48 -10
-62 -19 -109 -32 -314 -30 -485 5 -444 84 -835 257 -1275 53 -135 153 -351
205 -443 18 -33 33 -60 33 -62 0 -21 326 -535 348 -549 8 -5 7 -49 -2 -111 -7
-45 -19 -316 -19 -430 0 -102 11 -342 18 -405 3 -19 7 -60 10 -90 11 -98 36
-252 52 -320 3 -14 7 -30 9 -37 45 -220 165 -531 277 -718 184 -309 462 -573
819 -778 255 -147 622 -288 965 -372 144 -36 403 -89 478 -99 22 -3 72 -9 110
-15 81 -12 153 -21 210 -26 22 -3 65 -7 95 -10 256 -27 765 -36 1065 -20 231
12 398 25 515 40 19 3 58 7 85 10 60 7 250 34 285 41 14 2 41 6 60 9 60 8 291
53 380 74 47 11 97 22 110 25 51 10 69 15 184 46 64 17 152 43 194 56 54 18
105 27 172 29 128 5 297 15 340 21 19 2 51 7 70 9 19 3 58 7 85 11 229 27 490
117 642 221 350 240 341 643 -26 1108 -90 114 -174 200 -397 410 -223 209
-539 530 -716 726 -36 39 -181 207 -252 289 -12 14 -62 77 -111 140 -49 63
-92 117 -95 120 -3 3 -28 37 -55 75 -27 39 -51 72 -55 75 -7 6 -190 279 -190
284 0 2 -24 43 -54 92 -144 240 -273 544 -306 721 -6 35 -14 75 -17 90 -3 16
-5 71 -6 123 0 231 60 314 518 709 425 366 613 611 663 861 9 46 9 225 0 272
-34 173 -161 373 -308 486 -54 42 -158 92 -235 113 -87 24 -227 32 -304 17
-25 -5 -57 -10 -71 -13 -50 -9 -145 -46 -209 -81 -212 -117 -378 -323 -460
-573 -81 -247 -85 -470 -16 -981 3 -19 7 -53 10 -75 4 -45 19 -154 34 -260 6
-38 13 -92 16 -120 6 -49 21 -169 30 -232 14 -98 15 -106 30 -233 3 -25 7 -56
10 -70 2 -14 7 -54 10 -90 3 -36 8 -76 10 -90 4 -28 12 -98 20 -180 3 -30 8
-71 10 -90 2 -19 7 -73 10 -120 4 -47 8 -99 10 -116 21 -174 21 -713 1 -821
-2 -10 -7 -45 -10 -78 -8 -65 -44 -219 -71 -300 -74 -217 -226 -372 -410 -418
-177 -45 -611 -56 -845 -22 -417 60 -651 255 -726 604 -19 87 -28 179 -40 371
-3 58 -7 125 -9 150 -2 25 -6 97 -10 160 -3 63 -7 133 -9 155 -2 22 -7 108
-11 190 -3 83 -8 173 -10 200 -2 28 -7 113 -10 190 -4 77 -8 172 -10 210 -2
39 -7 149 -10 245 -4 96 -8 216 -10 265 -32 847 -23 1812 21 2230 10 97 31
246 39 285 3 14 8 36 11 50 18 92 66 195 137 290 48 64 242 260 337 340 36 30
67 57 70 60 13 15 247 185 345 251 474 320 1031 586 1555 743 183 55 449 116
569 131 23 3 46 7 50 9 3 2 38 7 76 11 39 4 86 9 105 11 93 13 475 19 565 9
22 -2 68 -7 103 -10 35 -4 73 -8 85 -11 12 -2 38 -6 57 -9 231 -31 535 -134
764 -259 429 -234 821 -641 1031 -1071 93 -191 148 -362 177 -548 13 -90 17
-400 6 -486 -35 -262 -114 -505 -241 -750 -44 -84 -146 -257 -169 -286 -4 -5
-40 -53 -79 -105 -108 -143 -151 -193 -294 -335 -141 -141 -186 -182 -255
-235 -24 -19 -53 -43 -64 -53 -11 -9 -63 -48 -116 -85 -153 -108 -232 -177
-300 -263 -190 -240 -153 -448 154 -879 33 -47 66 -92 73 -100 114 -143 149
-182 293 -328 164 -168 207 -206 335 -307 257 -201 531 -345 729 -382 53 -10
312 -10 395 0 216 26 415 96 571 201 111 75 267 223 332 316 l31 45 81 -53
c186 -123 322 -183 461 -206 390 -62 736 195 975 726 62 138 146 393 174 531
3 15 9 39 12 55 3 15 9 45 14 67 12 55 38 230 45 307 4 35 8 78 11 97 16 123
22 503 10 696 -10 167 -30 350 -51 485 -13 78 -16 97 -20 120 -8 40 -15 73
-20 100 -3 14 -7 36 -10 50 -3 14 -7 36 -10 50 -2 14 -21 89 -41 165 -240 933
-730 1740 -1409 2320 -379 324 -913 646 -1415 852 -104 43 -153 65 -160 72 -3
4 -14 11 -25 18 -243 144 -418 233 -690 348 -16 7 -88 34 -160 60 -71 26 -139
51 -150 56 -18 8 -70 23 -270 81 -38 11 -77 21 -85 23 -8 2 -62 15 -120 28
-127 30 -233 53 -320 67 -36 6 -76 13 -90 16 -54 10 -268 39 -355 49 -27 2
-68 7 -90 9 -22 3 -80 8 -130 11 -49 4 -117 9 -150 11 -63 5 -703 13 -707 9z"/>
</g>
</svg>
