<svg
   xmlns:dc="http://purl.org/dc/elements/1.1/"
   xmlns:cc="http://creativecommons.org/ns#"
   xmlns:rdf="http://www.w3.org/1999/02/22-rdf-syntax-ns#"
   xmlns:svg="http://www.w3.org/2000/svg"
   xmlns="http://www.w3.org/2000/svg"
   xmlns:sodipodi="http://sodipodi.sourceforge.net/DTD/sodipodi-0.dtd"
   xmlns:inkscape="http://www.inkscape.org/namespaces/inkscape"
   width="100%"
   height="100%"
   viewBox="0 0 151.4923 27.94517"
   version="1.1"
   id="svg8"
   inkscape:version="0.92.3 (2405546, 2018-03-11)"
   sodipodi:docname="Chronos.svg">
  <defs
     id="defs2" />
  <sodipodi:namedview
     id="base"
     pagecolor="#ffffff"
     bordercolor="#666666"
     borderopacity="1.0"
     inkscape:pageopacity="0.0"
     inkscape:pageshadow="2"
     inkscape:zoom="0.98994949"
     inkscape:cx="119.25225"
     inkscape:cy="34.314876"
     inkscape:document-units="mm"
     inkscape:current-layer="layer1"
     showgrid="false"
     inkscape:window-width="1411"
     inkscape:window-height="709"
     inkscape:window-x="2136"
     inkscape:window-y="166"
     inkscape:window-maximized="0"
     showguides="false"
     units="px"
     fit-margin-top="0"
     fit-margin-left="0"
     fit-margin-right="0"
     fit-margin-bottom="0">
    <inkscape:grid
       type="xygrid"
       id="grid3745"
       originx="-4.5620776"
       originy="-263.99617" />
  </sodipodi:namedview>
  <metadata
     id="metadata5">
    <rdf:RDF>
      <cc:Work
         rdf:about="">
        <dc:format>image/svg+xml</dc:format>
        <dc:type
           rdf:resource="http://purl.org/dc/dcmitype/StillImage" />
        <dc:title></dc:title>
      </cc:Work>
    </rdf:RDF>
  </metadata>
  <g
     inkscape:label="Layer 1"
     inkscape:groupmode="layer"
     id="layer1"
     transform="translate(-4.5620777,-5.0586569)">
    <path
       style="fill:currentColor;stroke-width:0.23901984"
       d="M 78.076966,32.683591 C 76.573698,32.306574 75.458367,31.828888 74.14388,30.99909 l -1.031524,-0.651171 0.834576,-0.834576 0.834576,-0.834576 1.2892,0.723383 c 0.709058,0.39786 1.800103,0.850506 2.424542,1.005882 l 1.135344,0.282497 v 1.166722 c 0,0.641699 -0.08067,1.157579 -0.179265,1.146397 -0.09859,-0.01111 -0.717059,-0.155197 -1.374363,-0.320057 z m 4.182847,-1.066595 v -1.167959 l 1.015834,-0.15502 c 3.136336,-0.478621 6.253001,-3.458411 7.358435,-7.035277 0.785935,-2.543049 0.474445,-5.216307 -0.902621,-7.746431 -1.194151,-2.194046 -4.181037,-4.393378 -6.575323,-4.8416 -0.890642,-0.166732 -0.896325,-0.175207 -0.896325,-1.3362961 0,-1.355873 0.107208,-1.394615 2.167551,-0.783311 4.005311,1.188373 7.136136,4.2567201 8.369306,8.2022871 0.565973,1.810852 0.674032,5.251912 0.21863,6.962087 -0.711797,2.673005 -2.76335,5.52316 -5.164956,7.17551 -1.24404,0.855923 -3.921632,1.881172 -4.933226,1.888931 -0.62807,0.0048 -0.657305,-0.04691 -0.657305,-1.162921 z M 12.346509,31.736238 C 8.5946376,30.82265 6.0753627,28.130541 4.9400992,23.821714 4.438752,21.91888 4.4354435,17.379305 4.9340021,15.45602 6.1867808,10.623184 9.1535206,7.6830669 13.519333,6.9477259 c 3.007815,-0.506609 5.453032,-0.01547 7.332139,1.472858 l 0.933676,0.739485 0.247435,-0.676341 c 0.136092,-0.371988 0.294645,-0.810791 0.352349,-0.975118 0.06827,-0.194398 0.608544,-0.298774 1.546537,-0.298774 h 1.441622 v 3.9438261 3.943828 h -1.52979 -1.529789 L 22.037164,13.94554 C 21.723182,12.636716 20.761601,11.065299 19.82282,10.326853 17.34969,8.3814899 13.070606,8.8375889 11.430921,11.221331 9.9369056,13.3933 9.2494086,15.997792 9.2720676,19.399848 c 0.03515,5.278436 1.8307994,9.046586 4.6760814,9.812741 1.655153,0.445685 4.430293,0.206577 5.814494,-0.500983 1.364901,-0.697692 2.601042,-2.324931 3.014998,-3.968901 l 0.262001,-1.040502 h 1.38411 1.384111 l -0.303276,1.135345 c -1.008678,3.776124 -3.111035,5.925786 -6.712898,6.863953 -1.652157,0.430333 -4.751949,0.447037 -6.44518,0.03473 z m 113.814641,-0.01079 c -3.5604,-0.957012 -5.54447,-4.265975 -5.5274,-9.218374 0.0163,-4.73367 1.82447,-7.926648 5.12655,-9.052848 2.22075,-0.757401 6.45066,-0.529422 8.37299,0.451281 1.24079,0.633004 2.7454,2.422551 3.38415,4.025031 0.46582,1.168641 0.53745,1.782772 0.53379,4.576536 -0.005,3.550711 -0.23357,4.496691 -1.56178,6.453819 -0.96013,1.414755 -2.22945,2.299123 -3.93898,2.744397 -1.67624,0.436606 -4.80327,0.446468 -6.38932,0.02015 z m 5.23538,-2.261721 c 1.73058,-0.785998 2.35456,-2.974461 2.21421,-7.765794 -0.0806,-2.750259 -0.16445,-3.279716 -0.68404,-4.317355 -0.74344,-1.484652 -1.46882,-2.014737 -3.00615,-2.196811 -1.83885,-0.217786 -3.30767,0.505189 -3.94263,1.940624 -1.1727,2.651077 -1.13388,8.752033 0.0696,10.947133 0.966,1.761871 3.23485,2.352395 5.34896,1.392203 z m 13.12796,2.222005 c -2.36489,-0.748345 -3.46579,-2.061514 -3.46579,-4.134044 0,-1.943975 1.45142,-3.09648 3.28528,-2.608674 1.48308,0.394502 1.83911,1.867537 0.73724,3.050257 -0.64837,0.695952 -0.41391,1.137819 0.91586,1.726043 2.94218,1.301465 7.07537,-0.625065 6.02547,-2.808547 -0.46272,-0.962321 -1.57045,-1.631185 -4.10409,-2.478114 -4.56118,-1.524675 -6.1427,-3.049863 -6.1427,-5.923879 0,-1.888629 0.3787,-2.813417 1.60536,-3.920263 1.33353,-1.203282 2.40168,-1.513186 5.2067,-1.510623 2.83107,0.0026 4.3838,0.553805 5.71705,2.029535 1.61707,1.789914 1.33438,4.22567 -0.55616,4.792095 -0.79738,0.238897 -1.06364,0.21443 -1.85102,-0.170088 -0.79184,-0.3867 -0.92995,-0.573237 -0.99365,-1.342085 -0.0575,-0.694091 0.0587,-1.025691 0.522,-1.488946 l 0.59599,-0.595987 -0.61296,-0.482156 c -1.29416,-1.01798 -3.67989,-1.189187 -4.95241,-0.3554 -1.04684,0.685912 -1.38517,2.203649 -0.76051,3.411608 0.44681,0.864024 1.67967,1.509308 4.59354,2.404264 4.28182,1.315109 5.99708,3.027833 5.73967,5.731234 -0.20246,2.126442 -1.51725,3.553629 -4.11508,4.466938 -1.66996,0.5871 -5.82094,0.70328 -7.38979,0.206832 z M 27.763288,30.88201 c 0,-0.913823 0.03546,-0.955941 1.015835,-1.206899 0.558708,-0.143019 1.15138,-0.305549 1.31705,-0.361176 0.237581,-0.07977 0.288076,-2.386997 0.23902,-10.921275 l -0.0622,-10.8201291 -1.254854,-0.335436 c -1.238798,-0.331144 -1.254854,-0.347226 -1.254854,-1.256936 v -0.921502 h 3.346278 3.346278 v 5.6169671 c 0,3.08933 0.08068,5.616655 0.179265,5.616278 0.09859,-3.83e-4 0.394383,-0.331788 0.657304,-0.736465 2.036497,-3.134487 7.622812,-3.434517 9.551232,-0.51298 1.276016,1.933154 1.400815,2.646145 1.508142,8.616156 0.07056,3.924909 0.181889,5.60045 0.376397,5.66492 0.151911,0.05034 0.733327,0.208561 1.292037,0.351578 0.980385,0.250958 1.015833,0.293076 1.015833,1.206899 v 0.946868 H 44.494674 39.953297 V 30.87624 c 0,-0.929581 0.02603,-0.959193 1.07559,-1.223476 l 1.075588,-0.270835 -0.0014,-5.170304 c -7.17e-4,-2.843669 -0.107611,-5.552879 -0.237507,-6.020464 -0.720604,-2.593965 -4.298122,-3.208342 -6.182814,-1.061794 -1.024074,1.166353 -1.248611,2.653021 -1.172828,7.765256 l 0.06536,4.408953 1.135344,0.320465 c 1.108232,0.31281 1.135344,0.342964 1.135344,1.262649 v 0.942188 H 32.304597 27.76322 V 30.88201 Z m 22.945906,0 c 0,-0.913823 0.03546,-0.955941 1.015833,-1.206899 0.55871,-0.143019 1.150284,-0.305125 1.31461,-0.360242 0.229867,-0.0771 0.298775,-1.702313 0.298775,-7.046784 0,-5.344472 -0.0689,-6.969689 -0.298775,-7.046786 -0.164326,-0.05511 -0.7559,-0.217222 -1.31461,-0.360241 C 50.87122,14.6425 50.709194,14.506011 50.709194,14.005332 v -0.595694 l 2.926774,0.06711 2.926774,0.06711 0.331241,2.091424 c 0.182183,1.150282 0.410127,2.091423 0.506543,2.091423 0.09641,0 0.350387,-0.458461 0.564383,-1.018802 0.799545,-2.093584 2.792762,-3.742878 4.539644,-3.756345 1.005066,-0.0077 2.279312,0.682374 2.675869,1.44923 0.814908,1.575858 0.09993,3.849489 -1.307753,4.158668 -1.671054,0.367026 -2.98123,-0.476866 -2.98123,-1.920229 0,-0.492225 -0.118243,-0.82468 -0.293326,-0.82468 -0.601615,0 -1.789692,1.836038 -2.366645,3.65739 -0.530543,1.67484 -0.590698,2.272544 -0.590698,5.869132 v 4.00439 l 1.792648,0.301218 1.792649,0.301218 v 0.94049 0.94049 H 55.96763 50.709194 Z m 46.369853,0.0079 v -0.938939 l 1.31461,-0.294196 1.31461,-0.294197 v -6.781532 c 0,-5.212435 -0.0691,-6.804716 -0.29878,-6.881738 -0.16433,-0.05511 -0.7559,-0.217222 -1.31461,-0.360241 -0.94937,-0.243026 -1.01583,-0.314171 -1.01583,-1.087395 v -0.827357 h 2.963903 2.96391 l 0.28373,1.254855 c 0.52785,2.334514 0.421,2.271321 1.5869,0.938526 1.5328,-1.752215 3.2835,-2.551911 5.58667,-2.551911 1.46942,0 1.98426,0.10774 2.85536,0.597551 2.1179,1.190876 2.62255,3.30098 2.63471,11.016631 l 0.007,4.682606 1.31461,0.294197 1.31461,0.294196 v 0.938939 0.938937 h -4.54138 -4.54137 v -0.956997 c 0,-0.93467 0.0255,-0.963823 1.09424,-1.249663 l 1.09425,-0.292665 -0.0785,-5.502647 c -0.065,-4.55622 -0.14619,-5.626076 -0.47223,-6.220272 -0.70507,-1.285029 -1.30921,-1.655501 -2.69964,-1.655501 -1.68018,0 -2.96806,0.830267 -3.74934,2.417108 -0.54032,1.09742 -0.56676,1.3791 -0.56676,6.038589 v 4.887472 l 1.13534,0.353174 c 1.09498,0.340613 1.13535,0.385677 1.13535,1.267288 v 0.914114 h -4.66089 -4.660883 V 30.889905 Z M 70.311168,26.98869 c -0.740086,-1.282059 -1.675486,-3.93158 -1.675486,-4.745818 0,-0.382505 0.180929,-0.452863 1.164551,-0.452863 h 1.164548 l 0.147465,0.922129 c 0.0811,0.507169 0.505799,1.634127 0.943782,2.504347 l 0.796326,1.582221 -0.745348,0.722421 c -0.40994,0.397329 -0.81872,0.722418 -0.908397,0.722418 -0.08968,0 -0.489022,-0.564685 -0.887433,-1.254855 z m 12.665705,-3.271132 -2.987749,-1.847365 -0.06582,-3.744899 -0.06582,-3.7449 h 0.835895 0.835892 l 0.0665,3.273595 0.0665,3.273593 2.476246,1.485292 c 1.361936,0.816912 2.581987,1.591033 2.711226,1.720271 0.233995,0.233994 -0.408173,1.5094 -0.73334,1.456481 -0.08348,-0.01353 -1.496262,-0.856016 -3.139524,-1.872068 z M 68.635682,18.704041 c 0,-1.280263 2.070746,-5.99679 2.632832,-5.99679 0.07791,0 0.490944,0.3604 0.917884,0.80089 l 0.776253,0.800891 -0.727336,1.171022 c -0.400032,0.644063 -0.861259,1.735707 -1.024948,2.425878 l -0.297614,1.254853 h -1.138536 c -0.961493,0 -1.138535,-0.07103 -1.138535,-0.456744 z m 5.281771,-7.048303 -0.793779,-0.818976 1.007911,-0.730127 c 1.131981,-0.8200021 2.962789,-1.5606751 4.483176,-1.8137151 l 1.015833,-0.169066 v 1.187734 1.1877331 l -1.104883,0.278212 c -0.607683,0.153023 -1.656383,0.568517 -2.330443,0.923331 -0.674057,0.354815 -1.283716,0.674081 -1.354795,0.709483 -0.07107,0.03541 -0.486437,-0.304172 -0.92302,-0.754609 z"
       id="path3724"
       inkscape:connector-curvature="0" />
  </g>
</svg>
